<svg width="112" height="26" viewBox="0 0 112 26" fill="none" xmlns="http://www.w3.org/2000/svg">
<path d="M15.4637 19.2084C15.4576 19.207 15.4519 19.204 15.4472 19.1998C15.4425 19.1956 15.4389 19.1903 15.4367 19.1844C15.4345 19.1785 15.4338 19.1721 15.4347 19.1658C15.4355 19.1595 15.4379 19.1536 15.4416 19.1485C15.5808 18.955 15.7033 18.7764 15.8386 18.6084C15.8706 18.5691 15.9666 18.5439 16.0127 18.5617C16.3966 18.7264 16.8105 18.8541 17.1528 19.0865C17.7869 19.5173 17.7888 20.215 17.1973 20.7105C16.7657 21.0716 16.2472 21.249 15.7087 21.3618C14.1754 21.6842 12.6514 21.6784 11.1619 21.1448C10.8475 21.0279 10.5574 20.8529 10.3065 20.629C9.82661 20.205 9.85156 19.5973 10.3183 19.1646C10.6792 18.8286 11.1261 18.6661 11.5899 18.5439C11.6178 18.5412 11.6459 18.545 11.6721 18.5551C11.6983 18.5651 11.7218 18.581 11.7409 18.6016C11.875 18.7728 11.9994 18.9515 12.1392 19.1465C12.1429 19.1516 12.1454 19.1575 12.1463 19.1637C12.1472 19.1699 12.1465 19.1762 12.1444 19.1821C12.1423 19.188 12.1387 19.1933 12.1341 19.1975C12.1294 19.2017 12.1238 19.2047 12.1178 19.2062C11.9754 19.2375 11.835 19.277 11.6971 19.3245C11.4652 19.4141 11.2275 19.5012 11.0147 19.6279C10.7089 19.8097 10.7032 20.0206 11.0189 20.1892C11.3203 20.3522 11.6414 20.4752 11.9741 20.5551C13.3222 20.8692 14.6684 20.8553 15.9979 20.4436C16.2061 20.378 16.4041 20.2831 16.5859 20.1618C16.8812 19.9654 16.8815 19.8155 16.5757 19.6459C16.3051 19.495 16.0072 19.3938 15.7187 19.2768C15.6354 19.2479 15.5502 19.2251 15.4637 19.2084Z" fill="#F4991A"/>
<path d="M18.1714 7.56932C18.1772 9.98129 16.2011 11.978 13.8037 11.9828C11.4063 11.9877 9.41616 9.98742 9.40817 7.56642C9.40017 5.16573 11.3689 3.19708 13.7797 3.19515C16.2043 3.19289 18.1656 5.14671 18.1714 7.56932ZM13.7928 3.99054C11.7697 4.0044 10.198 5.60486 10.2099 7.63735C10.2227 9.56828 11.8683 11.1952 13.789 11.1762C15.7756 11.1562 17.3963 9.51895 17.3851 7.54353C17.3758 5.60035 15.7334 3.97667 13.7928 3.99054Z" fill="#F4991A"/>
<path d="M20.0144 22.8356L19.6897 22.922C19.6747 22.9259 19.6588 22.9237 19.6453 22.916C19.6318 22.9083 19.6218 22.8957 19.6174 22.8807C19.0364 20.8898 18.4587 18.9092 17.8723 16.9006C17.8701 16.8929 17.8663 16.8858 17.8614 16.8797C17.8564 16.8735 17.8502 16.8684 17.8432 16.8646C17.8363 16.8609 17.8286 16.8585 17.8208 16.8578C17.8129 16.8571 17.805 16.8579 17.7974 16.8603L17.1554 17.0624C17.1433 17.066 17.1304 17.0657 17.1186 17.0614C17.1067 17.0572 17.0965 17.0493 17.0894 17.0388C17.0823 17.0284 17.0787 17.0159 17.079 17.0032C17.0794 16.9906 17.0837 16.9783 17.0914 16.9683C17.3064 16.691 17.5201 16.4128 17.7418 16.141C17.7696 16.1071 17.8595 16.1016 17.9123 16.1152C19.8012 16.5956 21.6889 17.0804 23.5753 17.5696C23.661 17.5918 23.7506 17.6915 23.7922 17.7775C24.4382 19.1132 25.0793 20.4513 25.7155 21.7919C26.3039 23.0267 26.8904 24.2627 27.475 25.4997C27.5313 25.6186 27.5972 25.7311 27.4897 25.8604C27.3822 25.9897 27.2568 25.9397 27.1333 25.9065C24.8679 25.2983 22.6033 24.6909 20.3394 24.0846C20.2297 24.0571 20.1147 24.0592 20.0061 24.0907C17.9948 24.6978 15.9861 25.3133 13.9742 25.9178C13.8318 25.9581 13.6812 25.9581 13.5388 25.9178C11.5628 25.3201 9.59052 24.7094 7.61445 24.1123C7.45817 24.0666 7.29277 24.0629 7.13459 24.1013C4.90803 24.6858 2.68297 25.2769 0.459396 25.8746C0.349027 25.9043 0.115495 25.9452 0.0310392 25.8424C-0.0239849 25.775 0.00160785 25.5964 0.0499139 25.4942C0.920489 23.656 1.79629 21.8204 2.67732 19.9874C3.02921 19.2494 3.38591 18.513 3.73301 17.7724C3.75702 17.7132 3.79521 17.6609 3.84417 17.6202C3.89313 17.5796 3.95133 17.5517 4.01357 17.5393C5.87575 17.0644 7.7357 16.5853 9.59724 16.1132C9.66122 16.0968 9.77383 16.0997 9.80582 16.14C10.0163 16.406 10.2159 16.6804 10.4418 16.9867C10.4494 16.9969 10.4536 17.0093 10.4537 17.0221C10.4538 17.0349 10.4499 17.0474 10.4425 17.0578C10.435 17.0682 10.4245 17.0759 10.4124 17.0798C10.4003 17.0837 10.3873 17.0836 10.3753 17.0795L9.73 16.8648C9.72242 16.8623 9.71443 16.8614 9.70649 16.8621C9.69855 16.8628 9.69083 16.8651 9.68379 16.8688C9.67675 16.8726 9.67053 16.8777 9.6655 16.884C9.66047 16.8902 9.65673 16.8974 9.6545 16.9051C9.07515 18.8999 8.49964 20.8817 7.91836 22.8846C7.91403 22.8995 7.9041 22.9122 7.89067 22.9199C7.87723 22.9276 7.86135 22.9297 7.84638 22.9258L7.51336 22.8391C7.50568 22.8371 7.49847 22.8335 7.49217 22.8286C7.48587 22.8237 7.4806 22.8176 7.47667 22.8106C7.47274 22.8037 7.47023 22.796 7.46927 22.788C7.46832 22.7801 7.46896 22.772 7.47113 22.7643C8.02745 20.8421 8.57897 18.9373 9.13881 17.0034C9.14168 16.9933 9.14186 16.9826 9.13933 16.9723C9.13681 16.9621 9.13166 16.9527 9.12441 16.9451C9.11716 16.9375 9.10805 16.932 9.09801 16.929C9.08796 16.9261 9.07732 16.9258 9.06715 16.9283C8.42158 17.0921 7.80736 17.2459 7.19473 17.4052C6.27532 17.6441 5.35654 17.8843 4.44033 18.1341C4.34215 18.1631 4.25871 18.2289 4.20711 18.3179C3.17317 20.463 2.14424 22.6104 1.12033 24.76C1.09185 24.8194 1.06594 24.8797 1.03555 24.9499C1.0311 24.9603 1.02962 24.9716 1.03128 24.9828C1.03295 24.9939 1.03769 25.0044 1.04497 25.0129C1.05224 25.0214 1.06176 25.0278 1.07243 25.0311C1.0831 25.0344 1.09449 25.0347 1.10529 25.0318C1.7691 24.8558 2.40379 24.6888 3.03785 24.5192C4.40706 24.1533 5.77498 23.7825 7.14643 23.4249C7.29744 23.3892 7.45504 23.3936 7.60389 23.4375C9.55363 24.0226 11.5015 24.6145 13.4476 25.2133C13.6523 25.2796 13.8723 25.2796 14.0769 25.2133C16.0443 24.6115 18.0136 24.0163 19.9846 23.4278C20.1062 23.3908 20.2353 23.3866 20.3589 23.4156C22.3543 23.9452 24.3484 24.4798 26.3412 25.0193C26.3674 25.0264 26.3937 25.0325 26.4253 25.0396C26.4362 25.0422 26.4475 25.0416 26.4581 25.038C26.4686 25.0344 26.478 25.0278 26.485 25.0191C26.492 25.0104 26.4964 24.9998 26.4978 24.9887C26.4991 24.9775 26.4973 24.9662 26.4925 24.9561C26.355 24.6572 26.2305 24.3828 26.1026 24.1117C25.203 22.2314 24.2976 20.3539 23.4054 18.4694C23.2989 18.2438 23.1623 18.1357 22.9227 18.0751C21.493 17.7131 20.0685 17.332 18.6417 16.9583C18.5822 16.9425 18.5217 16.9302 18.4577 16.9167C18.4477 16.9147 18.4373 16.9153 18.4275 16.9185C18.4178 16.9218 18.409 16.9274 18.4021 16.935C18.3951 16.9427 18.3903 16.9519 18.3879 16.962C18.3856 16.972 18.3858 16.9825 18.3886 16.9925C18.9465 18.9202 19.4984 20.8292 20.0576 22.7601C20.0599 22.7679 20.0607 22.7761 20.0598 22.7843C20.0588 22.7924 20.0563 22.8002 20.0522 22.8073C20.0482 22.8143 20.0427 22.8205 20.0362 22.8254C20.0297 22.8302 20.0223 22.8337 20.0144 22.8356Z" fill="#344F1F"/>
<path d="M20.5915 7.36813L20.5522 7.01574C20.4991 7.02178 20.4457 7.0248 20.3922 7.02476C20.292 7.02463 20.1921 7.01382 20.0941 6.99252C19.9302 6.95766 19.7736 6.89404 19.6315 6.80456C19.4259 6.6749 19.2562 6.49488 19.1382 6.28128C19.0191 6.06647 18.9564 5.82451 18.9562 5.57842C18.9562 5.49783 18.9628 5.41738 18.976 5.3379L19.0432 4.9352L18.6372 4.92553C18.5489 4.9228 18.461 4.91201 18.3746 4.89329C18.211 4.85863 18.0548 4.79534 17.913 4.70629C17.7071 4.57697 17.5369 4.39731 17.4184 4.18398C17.2992 3.96917 17.2366 3.72722 17.2363 3.48112C17.2365 3.37925 17.2472 3.27768 17.2683 3.17805C17.3216 2.92379 17.4422 2.68881 17.6174 2.49809L17.8861 2.20469L17.5662 1.9703C17.3988 1.84794 17.2595 1.69066 17.1578 1.50918C17.0561 1.32769 16.9944 1.12626 16.9769 0.918585L16.9593 0.706116L16.7651 0.621966C15.8167 0.21192 14.7955 0.000328819 13.7634 3.07019e-05C12.3311 -0.00412424 10.9288 0.413528 9.72876 1.20166C8.60268 1.94515 7.72165 2.914 7.12343 4.01697C6.52246 5.12523 6.20833 6.36826 6.21009 7.63122C6.21172 8.52335 6.36115 9.40894 6.6522 10.2515C6.91647 11.0103 7.25119 11.7423 7.65191 12.4378C8.04722 13.1243 8.48374 13.7858 8.95906 14.4187C10.3177 16.2493 11.7346 18.0297 13.1233 19.8226C13.2015 19.9279 13.2961 20.0197 13.4035 20.0944C13.4592 20.1321 13.5197 20.1622 13.5833 20.1837C13.6502 20.2065 13.7203 20.2181 13.7909 20.2182C13.8621 20.218 13.9327 20.2063 14.0002 20.1834C14.0949 20.1502 14.1829 20.0999 14.2596 20.0348C14.3357 19.9706 14.4045 19.8983 14.465 19.8191C15.6087 18.3544 16.7651 16.8954 17.8938 15.411C18.7335 14.3065 19.5454 13.1645 20.2054 11.909C20.4793 11.3939 20.7138 10.8586 20.907 10.3076C21.1003 9.75444 21.2359 9.18251 21.3117 8.60104L21.3302 8.45563L21.2413 8.33956C21.0471 8.08674 20.9417 7.77616 20.9415 7.45647C20.9415 7.43294 20.9415 7.4094 20.9431 7.38586L20.9636 6.96931L20.5522 7.01606L20.5915 7.36845L20.2396 7.35104C20.2377 7.38619 20.2371 7.42165 20.2371 7.45647C20.2378 7.93302 20.3953 8.39587 20.685 8.77256L20.9636 8.5559L20.6146 8.51109C20.545 9.0436 20.4205 9.56734 20.2432 10.0738C20.0618 10.5908 19.8415 11.0931 19.5842 11.5763C18.9539 12.776 18.1666 13.8867 17.3362 14.9787C16.2133 16.4557 15.0587 17.9126 13.9131 19.3796C13.8798 19.4259 13.8397 19.4669 13.7941 19.5012L13.7817 19.5086H13.7781L13.7922 19.5515V19.5067C13.7875 19.5066 13.7827 19.5073 13.7781 19.5086L13.7922 19.5515V19.5531L13.8069 19.5086C13.8021 19.5073 13.7972 19.5067 13.7922 19.5067V19.5531L13.8069 19.5086C13.7931 19.5018 13.7804 19.493 13.7692 19.4825C13.7362 19.4526 13.7061 19.4197 13.6793 19.3841C12.2855 17.5867 10.8718 15.8105 9.52273 13.9931C9.06449 13.3828 8.64357 12.745 8.2623 12.0831C7.88425 11.4266 7.56828 10.7358 7.31857 10.0197C7.05232 9.25128 6.91522 8.44349 6.91293 7.62961C6.91108 6.48563 7.1955 5.35966 7.73989 4.35583C8.28181 3.35635 9.08062 2.47552 10.1133 1.79361C11.1986 1.08114 12.4669 0.703821 13.7622 0.70805C14.6987 0.708468 15.6254 0.90053 16.4862 1.2726L16.625 0.946636L16.2731 0.975975C16.299 1.2854 16.3907 1.58557 16.5421 1.85603C16.6934 2.12649 16.9009 2.36088 17.1503 2.54322L17.357 2.25628L17.0985 2.01543C16.8375 2.29999 16.6576 2.65033 16.578 3.02942C16.5467 3.17781 16.5309 3.3291 16.531 3.4808C16.5315 3.97058 16.6973 4.44561 17.0012 4.82784C17.1518 5.01736 17.3331 5.17989 17.5374 5.30856C17.7491 5.44201 17.9824 5.53685 18.2268 5.58874C18.3556 5.61621 18.4867 5.63164 18.6183 5.63484L18.6279 5.28019L18.2808 5.22151C18.261 5.33986 18.251 5.45968 18.2511 5.57971C18.2519 6.06877 18.4177 6.54301 18.7214 6.92449C18.8712 7.11513 19.0522 7.27867 19.2566 7.40811C19.4683 7.54142 19.7017 7.63625 19.946 7.68829C20.092 7.7196 20.241 7.73538 20.3903 7.73536C20.4705 7.7354 20.5506 7.73088 20.6302 7.72182L20.5909 7.36942L20.239 7.35201L20.5915 7.36813Z" fill="#F4991A"/>
<path d="M35.8219 25.9394C34.9643 25.9394 34.3021 25.6686 33.8352 25.127C33.3684 24.5853 33.1349 23.818 33.1346 22.8249V12.6312C33.1346 12.4249 33.1858 12.2733 33.2882 12.1766C33.3906 12.0799 33.5377 12.0315 33.7297 12.0315C33.9086 12.0315 34.0494 12.0799 34.1519 12.1766C34.2545 12.2733 34.3057 12.4249 34.3055 12.6312V22.6905C34.3055 23.4385 34.4527 23.9963 34.747 24.3638C35.0413 24.7314 35.47 24.9151 36.033 24.9151C36.1421 24.9163 36.2511 24.9098 36.3593 24.8958C36.4483 24.8829 36.5381 24.8765 36.628 24.8765C36.7432 24.8636 36.8296 24.8861 36.8872 24.9442C36.9447 25.0022 36.9735 25.1215 36.9735 25.302C36.9735 25.4826 36.9284 25.618 36.8392 25.7083C36.7499 25.7986 36.6021 25.863 36.3977 25.9017C36.3078 25.9143 36.2154 25.924 36.1194 25.9307C36.0234 25.9375 35.9249 25.9394 35.8219 25.9394Z" fill="#344F1F"/>
<path d="M42.3093 25.9394C41.4387 25.9394 40.6837 25.7395 40.0443 25.3397C39.405 24.94 38.9091 24.379 38.5568 23.6568C38.2047 22.9345 38.0287 22.0769 38.0289 21.0839C38.0289 20.3488 38.1281 19.6846 38.3264 19.0914C38.5248 18.4981 38.8127 17.9855 39.1902 17.5535C39.5638 17.1241 40.03 16.7867 40.553 16.5669C41.0836 16.3412 41.6691 16.2284 42.3093 16.2284C43.1922 16.2284 43.9536 16.4283 44.5934 16.8281C45.2333 17.2278 45.7291 17.7921 46.081 18.5207C46.4329 19.2494 46.6089 20.1038 46.6089 21.0839C46.6089 21.8319 46.5097 22.5025 46.3113 23.0958C46.113 23.689 45.8251 24.1984 45.4476 24.624C45.074 25.0468 44.6118 25.3805 44.0944 25.6009C43.5695 25.8264 42.9745 25.9392 42.3093 25.9394ZM42.3093 24.9529C42.9491 24.9529 43.5025 24.8013 43.9696 24.4983C44.4367 24.1952 44.795 23.7535 45.0445 23.1731C45.294 22.5928 45.4188 21.8964 45.4188 21.0839C45.4188 19.8587 45.1405 18.9108 44.5838 18.2402C44.0272 17.5696 43.269 17.2343 42.3093 17.2343C41.6823 17.2343 41.1352 17.3858 40.6682 17.6889C40.2011 17.992 39.8428 18.4304 39.5933 19.0043C39.3438 19.5782 39.219 20.2714 39.219 21.0839C39.219 22.322 39.5005 23.2763 40.0635 23.9469C40.6266 24.6175 41.3752 24.9529 42.3093 24.9529Z" fill="#344F1F"/>
<path d="M52.9046 25.9394C51.9956 25.9394 51.2151 25.7363 50.5629 25.3301C49.9107 24.9238 49.4084 24.3499 49.0561 23.6084C48.7049 22.8675 48.5292 22.0066 48.5292 21.0259C48.5292 20.2779 48.6284 19.6105 48.8268 19.0237C49.0251 18.4369 49.313 17.9372 49.6905 17.5245C50.0754 17.1064 50.5474 16.7794 51.0725 16.5669C51.6159 16.3412 52.2269 16.2284 52.9056 16.2284C53.4014 16.232 53.8935 16.3136 54.3644 16.4702C54.8708 16.636 55.3357 16.9102 55.7272 17.2739C55.8116 17.3437 55.872 17.4384 55.8999 17.5448C55.9257 17.6442 55.919 17.7494 55.8807 17.8446C55.8458 17.9367 55.7859 18.0172 55.708 18.0768C55.6269 18.1363 55.5299 18.17 55.4296 18.1735C55.3206 18.1799 55.2089 18.1316 55.0937 18.0284C54.735 17.7318 54.3735 17.5287 54.0093 17.419C53.664 17.3124 53.3051 17.257 52.944 17.2546C52.4189 17.2546 51.9582 17.3384 51.562 17.5061C51.1733 17.6677 50.828 17.9196 50.5543 18.2412C50.2789 18.5636 50.071 18.9602 49.9304 19.4309C49.7899 19.9016 49.7195 20.44 49.7193 21.0462C49.7193 22.2584 49.9976 23.2096 50.5543 23.8995C51.1109 24.5895 51.9075 24.9345 52.944 24.9345C53.3051 24.9321 53.664 24.8767 54.0093 24.77C54.374 24.6604 54.7354 24.4573 55.0937 24.1607C55.2089 24.0575 55.3206 24.0092 55.4296 24.0156C55.5299 24.0191 55.6269 24.0528 55.708 24.1123C55.7849 24.1708 55.8419 24.2519 55.8711 24.3445C55.9028 24.4414 55.9061 24.5455 55.8807 24.6443C55.8528 24.7506 55.7924 24.8454 55.708 24.9151C55.3265 25.28 54.8667 25.5514 54.3644 25.7083C53.892 25.8585 53.3999 25.9364 52.9046 25.9394Z" fill="#344F1F"/>
<path d="M60.7935 25.9394C60.1663 25.9394 59.6064 25.8169 59.114 25.5719C58.6215 25.3269 58.2313 24.9915 57.9431 24.566C57.6565 24.1449 57.5057 23.645 57.5113 23.1344C57.5113 22.438 57.684 21.8899 58.0295 21.4901C58.375 21.0903 58.9572 20.8098 59.7762 20.6486C60.595 20.4874 61.721 20.4068 63.1544 20.4068H63.9807V21.2773H63.1746C62.0229 21.2773 61.124 21.3257 60.4778 21.4224C59.8315 21.5192 59.3805 21.6965 59.1245 21.9544C58.8686 22.2123 58.7407 22.5734 58.7407 23.0377C58.7407 23.6181 58.939 24.0888 59.3357 24.4499C59.7324 24.811 60.2698 24.9915 60.948 24.9915C61.4978 24.9915 61.9809 24.8594 62.3972 24.595C62.8173 24.3257 63.1585 23.9484 63.3857 23.502C63.6286 23.0377 63.7502 22.509 63.7504 21.9157V19.7104C63.7504 18.8464 63.5777 18.2177 63.2322 17.8243C62.8867 17.431 62.3364 17.2343 61.5814 17.2343C61.1046 17.233 60.6298 17.2981 60.1706 17.4277C59.7162 17.5567 59.2331 17.763 58.7215 18.0468C58.5805 18.1242 58.4557 18.1499 58.3472 18.1241C58.2482 18.1046 58.1596 18.0496 58.0976 17.9694C58.0377 17.8864 57.9983 17.7903 57.9825 17.6889C57.963 17.5801 57.9799 17.4678 58.0305 17.3697C58.0812 17.2665 58.1708 17.1827 58.2992 17.1182C58.8173 16.8295 59.3684 16.6053 59.9403 16.4508C60.4691 16.3063 61.0143 16.2315 61.5622 16.2284C62.317 16.2284 62.9408 16.3573 63.4337 16.6153C63.9188 16.8655 64.3047 17.2749 64.5278 17.7759C64.7643 18.2918 64.8827 18.956 64.8829 19.7685V25.302C64.8829 25.4955 64.8378 25.6438 64.7485 25.747C64.6593 25.8501 64.5246 25.9017 64.3454 25.9017C64.1663 25.9017 64.0255 25.8498 63.9232 25.747C63.8208 25.6441 63.7696 25.4955 63.7696 25.302V23.5223H63.9616C63.8464 24.0253 63.6416 24.4573 63.3473 24.8184C63.0532 25.1791 62.6782 25.4642 62.2532 25.6502C61.8171 25.843 61.3305 25.9394 60.7935 25.9394Z" fill="#344F1F"/>
<path d="M70.6208 25.9394C69.7635 25.9394 69.1013 25.6686 68.6342 25.127C68.1671 24.5853 67.9336 23.818 67.9336 22.8249V12.6312C67.9336 12.4249 67.9848 12.2733 68.0872 12.1766C68.1895 12.0799 68.3367 12.0315 68.5286 12.0315C68.7078 12.0315 68.8485 12.0799 68.9509 12.1766C69.0533 12.2733 69.1045 12.4249 69.1045 12.6312V22.6905C69.1045 23.4385 69.2516 23.9963 69.5459 24.3638C69.8402 24.7314 70.2689 24.9151 70.832 24.9151C70.941 24.9163 71.0501 24.9098 71.1583 24.8958C71.2473 24.8829 71.3371 24.8765 71.427 24.8765C71.5422 24.8636 71.6285 24.8861 71.6861 24.9442C71.7437 25.0022 71.7725 25.1215 71.7725 25.302C71.7725 25.4826 71.7274 25.618 71.6381 25.7083C71.5489 25.7986 71.4011 25.863 71.1967 25.9017C71.1071 25.9144 71.0143 25.9241 70.9183 25.9307C70.8224 25.9359 70.7232 25.9394 70.6208 25.9394Z" fill="#344F1F"/>
<path d="M77.8376 25.9394C76.9675 25.9394 76.2253 25.7138 75.611 25.2624C74.9968 24.811 74.5809 24.2049 74.3634 23.444L74.5745 23.3279V25.302C74.5745 25.4955 74.5234 25.6438 74.421 25.747C74.3186 25.8498 74.1779 25.9017 73.9987 25.9017C73.8068 25.9017 73.6596 25.8501 73.5572 25.747C73.4549 25.6438 73.4037 25.4955 73.4037 25.302V12.6312C73.4037 12.4249 73.4549 12.2733 73.5572 12.1766C73.6596 12.0799 73.8068 12.0315 73.9987 12.0315C74.1779 12.0315 74.3186 12.0799 74.421 12.1766C74.5234 12.2733 74.5745 12.4249 74.5745 12.6312V18.7248H74.3634C74.5809 17.9639 74.9968 17.3578 75.611 16.9064C76.2253 16.455 76.9675 16.2293 77.8376 16.2293C78.6822 16.2293 79.4116 16.4292 80.0258 16.829C80.64 17.2288 81.1167 17.7898 81.4558 18.512C81.7949 19.2342 81.9644 20.0918 81.9644 21.0849C81.9644 22.0779 81.7949 22.9387 81.4558 23.6674C81.1167 24.3961 80.6368 24.9571 80.0162 25.3504C79.3956 25.7437 78.6694 25.9401 77.8376 25.9394ZM77.6649 24.9529C78.2919 24.9529 78.8389 24.8013 79.306 24.4983C79.773 24.1952 80.1351 23.7538 80.3921 23.1741C80.648 22.5938 80.776 21.8974 80.776 21.0849C80.776 19.8597 80.4944 18.9118 79.9314 18.2412C79.3684 17.5706 78.6134 17.2353 77.6665 17.2353C77.0394 17.2353 76.4924 17.3868 76.0253 17.6899C75.5583 17.9929 75.1968 18.4314 74.9408 19.0053C74.6849 19.5792 74.557 20.2724 74.557 21.0849C74.557 22.3229 74.8385 23.2773 75.4015 23.9479C75.9645 24.6185 76.719 24.9535 77.6649 24.9529Z" fill="#344F1F"/>
<path d="M85.0355 13.9853C84.7668 13.9853 84.5589 13.9144 84.4117 13.7726C84.2646 13.6307 84.191 13.4308 84.191 13.1729C84.191 12.9149 84.2646 12.7183 84.4117 12.5828C84.5589 12.4474 84.7668 12.3797 85.0355 12.3797C85.3043 12.3797 85.5122 12.4474 85.6594 12.5828C85.8065 12.7183 85.8801 12.9149 85.8801 13.1729C85.8801 13.4308 85.8065 13.6307 85.6594 13.7726C85.5122 13.9144 85.3043 13.9853 85.0355 13.9853ZM85.0355 25.863C84.8436 25.863 84.6964 25.805 84.5941 25.6889C84.4917 25.5729 84.4405 25.4181 84.4405 25.2247V16.9451C84.4405 16.7388 84.4917 16.584 84.5941 16.4808C84.6964 16.3776 84.8436 16.3261 85.0355 16.3261C85.2147 16.3261 85.3554 16.3776 85.4578 16.4808C85.5602 16.584 85.6114 16.7388 85.6114 16.9451V25.2247C85.6114 25.4181 85.5634 25.5729 85.4674 25.6889C85.3714 25.805 85.2275 25.8627 85.0355 25.8621V25.863Z" fill="#344F1F"/>
<path d="M92.214 25.9394C91.523 25.9394 90.9471 25.8105 90.4865 25.5525C90.0326 25.302 89.6696 24.9124 89.45 24.4402C89.2196 23.9566 89.1045 23.3601 89.1045 22.6508V17.3504H87.6841C87.5177 17.3504 87.3834 17.3085 87.281 17.2246C87.1786 17.1408 87.1274 17.0215 87.1274 16.8667C87.125 16.8022 87.1376 16.7379 87.1643 16.6791C87.191 16.6203 87.2309 16.5686 87.281 16.5282C87.3834 16.4444 87.5177 16.4025 87.6841 16.4025H89.1045V13.9844C89.1045 13.778 89.1556 13.6265 89.258 13.5298C89.3604 13.4331 89.5075 13.3847 89.6995 13.3847C89.8786 13.3847 90.0194 13.4331 90.1218 13.5298C90.2241 13.6265 90.2753 13.778 90.2753 13.9844V16.4025H92.8666C93.0457 16.4025 93.1801 16.4444 93.2697 16.5282C93.3592 16.612 93.404 16.7249 93.404 16.8667C93.404 17.0215 93.3592 17.1408 93.2697 17.2246C93.1801 17.3085 93.0457 17.3504 92.8666 17.3504H90.2753V22.497C90.2753 23.2837 90.4353 23.8834 90.7552 24.2961C91.0751 24.7088 91.6061 24.9151 92.3483 24.9151C92.6042 24.9151 92.8186 24.8861 92.9913 24.8281C93.1299 24.7766 93.2756 24.7473 93.4232 24.741C93.4691 24.7419 93.5143 24.7527 93.5557 24.7727C93.5971 24.7928 93.6338 24.8215 93.6631 24.8571C93.7335 24.9345 93.7687 25.057 93.7687 25.2247C93.7679 25.3314 93.7451 25.4368 93.7015 25.5342C93.6807 25.584 93.6478 25.6278 93.6059 25.6616C93.564 25.6954 93.5144 25.7181 93.4616 25.7276C93.2737 25.7912 93.0812 25.8397 92.8858 25.8727C92.6643 25.9152 92.4394 25.9376 92.214 25.9394Z" fill="#344F1F"/>
<path d="M99.1815 25.9394C98.2217 25.9394 97.3964 25.746 96.7054 25.3591C96.0204 24.9787 95.4652 24.3989 95.1122 23.6954C94.7409 22.9732 94.5554 22.1156 94.5556 21.1226C94.5556 20.1425 94.7411 19.2881 95.1122 18.5594C95.4833 17.8308 95.9984 17.2601 96.6574 16.8474C97.3162 16.4347 98.0744 16.2284 98.9319 16.2284C99.5587 16.2284 100.112 16.3348 100.592 16.5476C101.064 16.7544 101.484 17.0651 101.821 17.4568C102.159 17.8501 102.419 18.3273 102.598 18.8883C102.778 19.4493 102.867 20.0844 102.867 20.7937C102.867 20.9743 102.819 21.1097 102.723 21.2C102.627 21.2902 102.495 21.3354 102.329 21.3354H95.4002V20.4649H102.137L101.83 20.7163C101.83 19.9684 101.722 19.3332 101.504 18.8109C101.286 18.2886 100.963 17.8856 100.535 17.6018C100.106 17.3181 99.5779 17.1763 98.9511 17.1763C98.2473 17.1763 97.6523 17.3407 97.1661 17.6695C96.6798 17.9984 96.3151 18.4498 96.072 19.0237C95.8286 19.5976 95.7071 20.2585 95.7073 21.0065V21.1032C95.7073 22.3413 96.008 23.2924 96.6094 23.9566C97.2108 24.6208 98.0554 24.9529 99.1431 24.9529C99.6073 24.9541 100.069 24.889 100.515 24.7594C100.957 24.6304 101.389 24.4112 101.811 24.1017C101.939 24.0114 102.064 23.9663 102.185 23.9663C102.296 23.9628 102.404 23.9968 102.493 24.063C102.573 24.1242 102.633 24.2085 102.665 24.3048C102.697 24.4069 102.69 24.517 102.646 24.6143C102.601 24.7239 102.515 24.8239 102.387 24.9142C101.977 25.2495 101.484 25.5042 100.909 25.6783C100.349 25.85 99.7669 25.938 99.1815 25.9394Z" fill="#344F1F"/>
<path d="M108.279 25.9395C107.699 25.9389 107.121 25.8608 106.561 25.7073C105.977 25.5453 105.427 25.2765 104.94 24.9142C104.846 24.8604 104.774 24.7746 104.738 24.6724C104.706 24.5758 104.699 24.4725 104.719 24.3725C104.736 24.2736 104.783 24.1824 104.853 24.1114C104.923 24.0408 105.014 23.9965 105.112 23.9856C105.215 23.9727 105.323 24.005 105.439 24.0824C105.938 24.4177 106.424 24.6498 106.897 24.7788C107.36 24.9063 107.838 24.9714 108.318 24.9722C109.098 24.9722 109.693 24.8239 110.103 24.5273C110.512 24.2307 110.717 23.8309 110.717 23.3279C110.717 22.9152 110.586 22.596 110.324 22.3704C110.061 22.1447 109.636 21.9609 109.047 21.819L107.377 21.4321C106.571 21.2516 105.976 20.9582 105.592 20.5519C105.208 20.1457 105.016 19.6202 105.016 18.9753C105.016 18.4208 105.16 17.9372 105.448 17.5245C105.736 17.1118 106.146 16.7926 106.677 16.5669C107.208 16.3412 107.819 16.2284 108.51 16.2284C109.057 16.2259 109.601 16.3108 110.122 16.4799C110.619 16.639 111.077 16.9028 111.466 17.2537C111.56 17.3199 111.63 17.4148 111.667 17.5245C111.699 17.6218 111.699 17.727 111.667 17.8243C111.637 17.9189 111.58 18.0028 111.504 18.0661C111.429 18.13 111.334 18.1644 111.235 18.1629C111.133 18.1629 111.024 18.1242 110.909 18.0468C110.556 17.7729 110.16 17.5604 109.738 17.4181C109.336 17.2838 108.914 17.2152 108.49 17.215C107.748 17.215 107.176 17.3697 106.773 17.6792C106.369 17.9888 106.168 18.4079 106.168 18.9367C106.168 19.3364 106.293 19.6589 106.542 19.9039C106.792 20.1489 107.185 20.3359 107.723 20.4649L109.393 20.8518C110.224 21.0452 110.845 21.3322 111.254 21.7126C111.664 22.0931 111.869 22.6057 111.869 23.2505C111.869 24.0759 111.546 24.7304 110.899 25.214C110.253 25.6976 109.38 25.9395 108.279 25.9395Z" fill="#344F1F"/>
</svg>
