<svg width="224" height="56" viewBox="0 0 224 56" fill="none" xmlns="http://www.w3.org/2000/svg">
<mask id="mask0_1320_1264" style="mask-type:luminance" maskUnits="userSpaceOnUse" x="62" y="17" width="161" height="36">
<path d="M222.661 17.4487H62.7634V52.3599H222.661V17.4487Z" fill="white"/>
</mask>
<g mask="url(#mask0_1320_1264)">
<path d="M132.011 45.0982L130.304 50.4431C132.539 51.7877 134.493 52.3551 136.569 52.3551C138.644 52.3551 140.278 51.9021 141.699 50.9962C143.119 50.0903 144.433 48.5407 145.641 46.3427L146.902 44.0541L156.134 26.3267H148.284L143.43 37.6125L142.445 26.3267H134.794L137.989 45.0982L137.873 45.2937C137.451 45.9898 136.767 46.3427 135.822 46.3427C135.691 46.3427 135.57 46.3379 135.468 46.3236C135.361 46.3093 135.259 46.2902 135.153 46.2664C135.046 46.2426 134.949 46.2139 134.857 46.1901M114.656 35.2524C112.566 36.4444 111.519 38.0321 111.519 40.0251C111.519 41.3697 111.994 42.5331 112.94 43.5153C113.885 44.4975 115.136 44.9886 116.688 44.9886C118.792 44.9886 120.659 44.0064 122.289 42.042H122.327C122.618 44.4212 125.038 45.3509 129.586 44.836L131.283 39.677C130.784 39.6246 130.459 39.5102 130.318 39.329C130.178 39.1478 130.153 38.8236 130.26 38.3611L131.051 34.8328C131.419 33.6694 131.516 32.5394 131.346 31.438C131.177 30.3413 130.794 29.3687 130.202 28.5295C129.61 27.6903 128.597 27.0181 127.167 26.5127C125.731 26.0073 123.937 25.7545 121.784 25.7545C118.943 25.7545 116.368 26.1694 114.05 26.9942L114.681 32.425C116.809 31.6239 118.797 31.2234 120.635 31.2234C123.001 31.2234 124.029 32.0006 123.714 33.5502L123.637 33.9364C119.743 33.6265 116.751 34.0651 114.661 35.2571M120.475 40.4495C119.922 40.4495 119.481 40.3064 119.151 40.0203C118.822 39.7343 118.657 39.3481 118.657 38.857C118.657 37.5124 120.116 36.8163 123.035 36.7638L122.643 38.7473C122.361 40.0299 121.231 40.4495 120.47 40.4495M100.357 38.857C99.649 39.453 98.8829 39.7486 98.0683 39.7486C97.3312 39.7486 96.7397 39.4577 96.2936 38.876C95.8475 38.2943 95.6244 37.4838 95.6244 36.4491C95.6244 34.952 95.9639 33.6551 96.6524 32.5728C97.3361 31.4857 98.2428 30.9421 99.3726 30.9421C100.134 30.9421 100.949 31.2902 101.816 31.9911L100.357 38.857ZM98.5823 25.8261C95.5081 25.8261 92.9672 26.8655 90.9695 28.9491C88.9717 31.0327 87.9729 33.7266 87.9729 37.0356C87.9729 39.5435 88.5984 41.5079 89.8445 42.9336C91.0907 44.3544 92.6375 45.0649 94.4801 45.0649C96.4245 45.0649 98.1216 44.3544 99.5666 42.9336L99.329 44.4832H106.825L112.033 18.2211L104.382 18.7265L102.844 26.9132C101.37 26.1884 99.9496 25.8261 98.5823 25.8261ZM76.6507 38.2371C75.967 39.3242 75.0602 39.8678 73.9304 39.8678C73.1692 39.8678 72.3546 39.5197 71.4866 38.8188L72.9461 31.9529C73.6541 31.3569 74.4202 31.0613 75.2348 31.0613C75.9718 31.0613 76.5634 31.3522 77.0095 31.9338C77.4556 32.5155 77.6786 33.3261 77.6786 34.356C77.6786 35.8579 77.3344 37.15 76.6555 38.2371M83.4537 27.8811C82.2027 26.4602 80.6607 25.7498 78.8181 25.7498C76.8737 25.7498 75.1766 26.4602 73.7316 27.8811L75.7439 17.4487L67.4378 20.5479L62.7634 45.103L69.9834 43.6297C71.7193 44.5356 73.3098 44.9886 74.7548 44.9886C77.829 44.9886 80.3601 43.9539 82.3481 41.8846C84.3313 39.8153 85.3254 37.1119 85.3254 33.7791C85.3254 31.2711 84.6999 29.3067 83.4537 27.8811Z" fill="#F088A7"/>
<path d="M169.337 38.2371C168.654 39.3242 167.747 39.8678 166.617 39.8678C165.856 39.8678 165.041 39.5197 164.173 38.8188L165.633 31.9529C166.341 31.3569 167.107 31.0613 167.922 31.0613C168.659 31.0613 169.25 31.3522 169.696 31.9338C170.142 32.5155 170.365 33.3261 170.365 34.356C170.365 35.8579 170.021 37.15 169.337 38.2371ZM176.145 27.8811C174.894 26.4602 173.352 25.7498 171.51 25.7498C169.565 25.7498 167.868 26.4602 166.423 27.8811L168.436 17.4487L160.129 20.5479L155.455 45.1078L162.675 43.6345C164.411 44.5404 166.001 44.9933 167.446 44.9933C170.521 44.9933 173.052 43.9587 175.04 41.8894C177.023 39.8201 178.017 37.1166 178.017 33.7838C178.017 31.2759 177.392 29.3115 176.145 27.8858" fill="#FED967"/>
<path d="M212.148 31.2134C212.716 30.5698 213.366 30.2455 214.103 30.2455C215.179 30.2455 215.717 30.8272 215.717 31.9906C215.717 32.7154 215.601 33.3733 215.363 33.9693H210.946C211.184 32.7821 211.581 31.8619 212.148 31.2134ZM221.754 36.9922C222.36 35.414 222.661 33.9026 222.661 32.4531C222.661 30.2551 221.929 28.5911 220.469 27.4706C219.01 26.3453 216.978 25.7827 214.374 25.7827C211.14 25.7827 208.425 26.7888 206.228 28.8056C204.031 30.8225 202.936 33.3686 202.936 36.4487C202.936 39.1664 203.881 41.2834 205.777 42.8092C207.668 44.3349 210.286 45.1455 213.627 45.0978C216.435 45.0597 217.846 44.6925 219.184 44.1871L221.264 38.3511C219.451 39.3619 216.207 39.977 214.258 39.977C213.181 39.977 212.241 39.7434 211.436 39.2809C210.636 38.8136 210.233 38.1699 210.233 37.3403V37.1448L221.754 36.9875V36.9922Z" fill="#FED967"/>
<path d="M189.829 31.2134C190.396 30.5698 191.046 30.2455 191.783 30.2455C192.859 30.2455 193.398 30.8272 193.398 31.9906C193.398 32.7154 193.281 33.3733 193.044 33.9693H188.626C188.864 32.7821 189.262 31.8619 189.829 31.2134ZM199.435 36.9922C200.041 35.414 200.341 33.9026 200.341 32.4531C200.341 30.2551 199.609 28.5911 198.15 27.4706C196.69 26.3453 194.658 25.7827 192.055 25.7827C188.82 25.7827 186.105 26.7888 183.908 28.8056C181.712 30.8225 180.616 33.3686 180.616 36.4487C180.616 39.1664 181.562 41.2834 183.457 42.8092C185.348 44.3349 187.967 45.1455 191.308 45.0978C194.115 45.0597 195.526 44.6925 196.865 44.1871L198.945 38.3511C197.131 39.3619 193.887 39.977 191.938 39.977C190.862 39.977 189.921 39.7434 189.116 39.2809C188.316 38.8136 187.914 38.1699 187.914 37.3403V37.1448L199.435 36.9875V36.9922Z" fill="#FED967"/>
</g>
<mask id="mask1_1320_1264" style="mask-type:luminance" maskUnits="userSpaceOnUse" x="62" y="14" width="162" height="37">
<path d="M223.136 14H62.2881V50.1079H223.136V14Z" fill="white"/>
</mask>
<g mask="url(#mask1_1320_1264)">
<path d="M136.568 50.1181C134.338 50.1181 132.33 49.5078 130.051 48.1346L129.726 47.9391L131.55 42.2366C131.632 41.9839 131.904 41.8456 132.156 41.9267C132.413 42.0077 132.553 42.2747 132.471 42.5227L130.876 47.51C132.859 48.6495 134.629 49.1597 136.563 49.1597C138.498 49.1597 140.093 48.7306 141.427 47.8771C142.77 47.0189 144.045 45.5122 145.209 43.3952L146.47 41.1066L155.333 24.0849H148.598L143.109 36.8535L141.994 24.0849H135.361L138.488 42.475L138.28 42.8183C137.766 43.667 136.937 44.0961 135.812 44.0961C135.657 44.0961 135.521 44.0866 135.395 44.0723C135.274 44.058 135.147 44.0341 135.026 44.0055C134.91 43.9769 134.808 43.9483 134.711 43.9245C134.454 43.8529 134.304 43.5907 134.376 43.338C134.449 43.0853 134.721 42.9375 134.973 43.009C135.06 43.0328 135.152 43.0567 135.254 43.0853C135.337 43.1044 135.424 43.1234 135.511 43.133C135.598 43.1425 135.695 43.1473 135.807 43.1473C136.588 43.1473 137.106 42.8898 137.441 42.332L137.47 42.289L134.212 23.1313H142.881L143.74 32.9343L147.953 23.1313H156.919L147.328 41.55L146.062 43.8482C144.821 46.1082 143.439 47.7293 141.955 48.6734C140.462 49.627 138.648 50.1085 136.563 50.1085L136.568 50.1181ZM62.763 42.866C62.7339 42.866 62.7048 42.866 62.6709 42.8564C62.4091 42.8088 62.2345 42.5608 62.283 42.2986L67.0107 17.4813L76.3787 13.9863L74.4634 23.9276C75.7532 23.0169 77.2128 22.5544 78.8177 22.5544C80.7961 22.5544 82.4787 23.3268 83.8218 24.8526C85.1456 26.3592 85.8147 28.4476 85.8147 31.0605C85.8147 34.5077 84.7673 37.3447 82.7017 39.495C80.6312 41.6549 77.9546 42.7468 74.7544 42.7468C74.4877 42.7468 74.2695 42.5322 74.2695 42.27C74.2695 42.0077 74.4877 41.7932 74.7544 41.7932C77.6783 41.7932 80.1124 40.8014 81.9938 38.8418C83.88 36.8726 84.8401 34.255 84.8401 31.0605C84.8401 28.6812 84.2485 26.8027 83.0848 25.4772C81.921 24.1517 80.5246 23.508 78.8177 23.508C76.9897 23.508 75.4381 24.1612 74.0707 25.501L72.9603 26.5929L75.1035 15.4787L67.8641 18.1774L63.2382 42.475C63.1946 42.7039 62.9909 42.866 62.763 42.866ZM190.997 42.8278C187.748 42.8278 185.096 42.022 183.122 40.4295C181.12 38.818 180.106 36.5532 180.106 33.6971C180.106 30.4978 181.265 27.8087 183.554 25.706C185.833 23.6129 188.684 22.5496 192.03 22.5496C194.731 22.5496 196.884 23.1504 198.421 24.3376C199.997 25.5534 200.797 27.3557 200.797 29.6968C200.797 29.9591 200.578 30.1736 200.312 30.1736C200.045 30.1736 199.827 29.9591 199.827 29.6968C199.827 27.6323 199.172 26.1256 197.824 25.0862C196.457 24.0325 194.508 23.4984 192.03 23.4984C188.936 23.4984 186.308 24.4711 184.213 26.3974C182.128 28.3093 181.071 30.7648 181.071 33.6924C181.071 36.2814 181.944 38.241 183.733 39.6857C185.586 41.1781 188.127 41.9124 191.269 41.8647C193.78 41.8265 195.148 41.5309 196.447 41.0637L198.072 36.5103C196.171 37.2541 193.586 37.6975 191.909 37.6975C190.75 37.6975 189.717 37.44 188.839 36.9346C187.899 36.3863 187.399 35.5757 187.399 34.584C187.399 34.3218 187.617 34.1072 187.884 34.1072C188.151 34.1072 188.369 34.3218 188.369 34.584C188.369 35.2467 188.674 35.7331 189.334 36.1145C190.056 36.5341 190.924 36.7487 191.909 36.7487C193.809 36.7487 196.937 36.1527 198.673 35.1848L199.798 34.5602L197.213 41.7979L197.005 41.879C195.54 42.4321 194.071 42.7801 191.283 42.8231C191.186 42.8231 191.089 42.8231 190.992 42.8231L190.997 42.8278ZM116.688 42.7515C115.005 42.7515 113.628 42.208 112.59 41.1304C111.558 40.0576 111.039 38.775 111.039 37.3113C111.039 35.1466 112.173 33.4063 114.418 32.1285C116.586 30.8936 119.699 30.4311 123.675 30.7458C123.942 30.7648 124.14 30.9985 124.121 31.2607C124.102 31.523 123.864 31.7137 123.597 31.6994C119.825 31.399 116.901 31.8233 114.903 32.9533C112.954 34.0643 112.008 35.4851 112.008 37.3113C112.008 38.5414 112.43 39.5761 113.298 40.4772C114.157 41.3688 115.267 41.8027 116.693 41.8027C118.661 41.8027 120.368 40.8968 121.92 39.0277L122.065 38.8513H122.725L122.817 39.2709C123.171 42.1841 127.418 41.8742 129.227 41.6787L130.657 37.3303C130.328 37.2398 130.095 37.0967 129.94 36.906C129.697 36.6056 129.649 36.1574 129.789 35.5376L130.58 32.0093C130.934 30.884 131.026 29.8112 130.871 28.7909C130.711 27.7658 130.352 26.8551 129.809 26.0827C129.28 25.3293 128.335 24.7095 127.006 24.2422C125.634 23.7607 123.874 23.5127 121.784 23.5127C119.161 23.5127 116.736 23.8799 114.578 24.5998L115.165 29.6539C115.194 29.9161 115.005 30.1498 114.738 30.1831C114.472 30.2165 114.234 30.0258 114.2 29.7636L113.526 23.9609L113.885 23.8322C116.242 22.9883 118.899 22.5639 121.784 22.5639C123.985 22.5639 125.852 22.8262 127.331 23.3506C128.854 23.8847 129.954 24.6237 130.604 25.5439C131.234 26.4403 131.647 27.4845 131.826 28.6526C132.005 29.8208 131.904 31.0318 131.516 32.262L130.735 35.7521C130.633 36.2003 130.701 36.3243 130.701 36.3243C130.701 36.3243 130.808 36.4387 131.336 36.4912L131.933 36.5532L129.954 42.5656L129.644 42.599C125.387 43.0805 122.846 42.3081 122.07 40.3008C120.489 41.9314 118.681 42.7611 116.688 42.7611V42.7515ZM107.223 42.2461H99.3286C99.0619 42.2461 98.8437 42.0316 98.8437 41.7693C98.8437 41.5071 99.0619 41.2925 99.3286 41.2925H106.423L111.431 16.027L104.784 16.4657L103.198 24.9098L102.621 24.6285C101.225 23.9419 99.862 23.5938 98.577 23.5938C95.6531 23.5938 93.2093 24.5951 91.3182 26.569C89.4174 28.5477 88.4525 31.1606 88.4525 34.3313C88.4525 36.7105 89.0441 38.5891 90.2078 39.9146C90.3824 40.1148 90.363 40.4152 90.1593 40.5869C89.9557 40.7585 89.6502 40.7347 89.4756 40.5392C88.1519 39.0325 87.4827 36.9441 87.4827 34.3313C87.4827 30.9126 88.5349 28.0805 90.6151 25.9158C92.7001 23.7464 95.3816 22.645 98.5819 22.645C99.8377 22.645 101.147 22.9358 102.48 23.5127L103.974 15.5693L112.629 14.9971L107.223 42.2509V42.2461ZM120.475 38.2124C119.801 38.2124 119.248 38.0265 118.831 37.6641C118.394 37.2874 118.171 36.7773 118.171 36.1431C118.171 34.4934 119.806 33.6304 123.025 33.5732L123.626 33.5636L123.122 36.124C122.807 37.5687 121.566 38.2124 120.475 38.2124ZM122.443 34.5458C120.252 34.6603 119.141 35.1991 119.141 36.1431C119.141 36.5007 119.248 36.7534 119.471 36.9489C119.713 37.1587 120.038 37.2588 120.475 37.2588C120.62 37.2588 121.891 37.2207 122.172 35.9333L122.443 34.5458ZM73.9252 37.6307C73.0524 37.6307 72.1263 37.2398 71.171 36.4769C70.9625 36.31 70.9334 36.0096 71.1031 35.8046C71.2729 35.5996 71.5783 35.571 71.7868 35.7378C72.5627 36.3624 73.2803 36.6771 73.9252 36.6771C74.8853 36.6771 75.6417 36.2194 76.2333 35.2753C76.8636 34.2693 77.1885 33.0487 77.1885 31.6469C77.1885 30.7219 76.9946 30.002 76.6163 29.5109C76.2624 29.0531 75.8066 28.829 75.2296 28.829C74.9629 28.829 74.7447 28.6145 74.7447 28.3522C74.7447 28.09 74.9629 27.8754 75.2296 27.8754C76.1218 27.8754 76.8491 28.233 77.3922 28.9387C77.9013 29.6015 78.1631 30.5169 78.1631 31.6517C78.1631 33.2347 77.7946 34.6221 77.0624 35.7808C76.2866 37.0109 75.2344 37.6355 73.9301 37.6355L73.9252 37.6307ZM98.0679 37.5115C97.1757 37.5115 96.4483 37.1539 95.9053 36.4483C95.3961 35.7855 95.1391 34.8748 95.1391 33.7353C95.1391 32.1523 95.5077 30.7648 96.2398 29.6062C97.0157 28.3761 98.0679 27.7515 99.3722 27.7515C99.6389 27.7515 99.8571 27.966 99.8571 28.2283C99.8571 28.4905 99.6389 28.7051 99.3722 28.7051C98.4122 28.7051 97.6557 29.1628 97.0642 30.1069C96.4338 31.1129 96.1089 32.3335 96.1089 33.7353C96.1089 34.6603 96.3029 35.3802 96.6811 35.8713C97.0351 36.3338 97.4909 36.5532 98.0679 36.5532C98.771 36.5532 99.4159 36.3005 100.041 35.776C100.245 35.6043 100.551 35.6282 100.725 35.8284C100.9 36.0287 100.875 36.3291 100.672 36.5007C99.8765 37.1682 98.9989 37.5068 98.0679 37.5068V37.5115ZM193.349 31.6946H188.01L188.122 31.1272C188.374 29.8589 188.815 28.8624 189.431 28.152C190.09 27.3987 190.871 27.0172 191.753 27.0172C193.111 27.0172 193.853 27.8087 193.853 29.2391C193.853 30.021 193.722 30.7458 193.465 31.3894L193.344 31.6946H193.349ZM189.208 30.741H192.675C192.815 30.2833 192.888 29.7779 192.888 29.2391C192.888 28.1234 192.345 27.9708 191.758 27.9708C191.172 27.9708 190.648 28.233 190.173 28.7766C189.756 29.2534 189.436 29.9114 189.213 30.741H189.208Z" fill="#263680"/>
<path d="M155.455 42.866C155.426 42.866 155.397 42.866 155.367 42.8564C155.106 42.8088 154.931 42.5608 154.98 42.2986L159.702 17.4765L169.07 13.9863L167.155 23.9276C168.445 23.0169 169.904 22.5544 171.509 22.5544C173.488 22.5544 175.17 23.3268 176.513 24.8526C177.837 26.3592 178.506 28.4476 178.506 31.0605C178.506 34.5077 177.459 37.3447 175.393 39.495C173.323 41.6549 170.646 42.7468 167.446 42.7468C167.179 42.7468 166.961 42.5322 166.961 42.27C166.961 42.0077 167.179 41.7932 167.446 41.7932C170.37 41.7932 172.804 40.8014 174.685 38.8418C176.577 36.8726 177.532 34.255 177.532 31.0605C177.532 28.6812 176.94 26.8027 175.776 25.4772C174.613 24.1517 173.216 23.508 171.509 23.508C169.681 23.508 168.13 24.1612 166.762 25.501L165.652 26.5929L167.795 15.4739L160.556 18.1774L155.935 42.475C155.891 42.7039 155.687 42.866 155.46 42.866H155.455ZM166.617 37.6307C165.744 37.6307 164.818 37.2398 163.863 36.4769C163.654 36.31 163.625 36.0096 163.795 35.8046C163.965 35.5996 164.27 35.571 164.479 35.7378C165.254 36.3625 165.972 36.6771 166.617 36.6771C167.577 36.6771 168.333 36.2194 168.925 35.2754C169.555 34.2693 169.88 33.0487 169.88 31.6469C169.88 30.7219 169.686 30.0067 169.308 29.5109C168.954 29.0531 168.498 28.829 167.921 28.829C167.655 28.829 167.436 28.6145 167.436 28.3522C167.436 28.09 167.655 27.8754 167.921 27.8754C168.813 27.8754 169.541 28.233 170.084 28.9387C170.593 29.6015 170.855 30.5169 170.855 31.6517C170.855 33.2347 170.486 34.6221 169.754 35.7808C168.978 37.0109 167.926 37.6355 166.622 37.6355L166.617 37.6307Z" fill="#263680"/>
<path d="M213.346 42.8672C210.092 42.8672 207.445 42.0614 205.471 40.4689C203.468 38.8573 202.455 36.5925 202.455 33.7365C202.455 30.5372 203.614 27.8481 205.903 25.7454C208.182 23.6522 211.033 22.5938 214.379 22.5938C217.084 22.5938 219.232 23.1945 220.774 24.3817C222.35 25.5976 223.15 27.3999 223.15 29.7409C223.15 30.0032 222.932 30.2177 222.665 30.2177C222.399 30.2177 222.18 30.0032 222.18 29.7409C222.18 27.6764 221.526 26.1697 220.178 25.1303C218.81 24.0766 216.861 23.5426 214.383 23.5426C211.29 23.5426 208.662 24.5152 206.567 26.4415C204.482 28.3535 203.425 30.809 203.425 33.7365C203.425 36.3255 204.298 38.2852 206.087 39.7299C207.939 41.2222 210.47 41.9565 213.622 41.9088C216.134 41.8707 217.506 41.5751 218.801 41.1078L220.425 36.5544C218.524 37.2982 215.94 37.7416 214.262 37.7416C213.098 37.7416 212.066 37.4841 211.193 36.9787C210.238 36.4257 209.753 35.6342 209.753 34.6281C209.753 34.3659 209.971 34.1513 210.238 34.1513C210.504 34.1513 210.722 34.3659 210.722 34.6281C210.722 35.2909 211.028 35.7772 211.687 36.1586C212.41 36.5782 213.273 36.7928 214.262 36.7928C216.163 36.7928 219.29 36.1968 221.026 35.2289L222.151 34.6043L219.567 41.8421L219.358 41.9231C217.899 42.4762 216.43 42.8243 213.637 42.8672C213.54 42.8672 213.443 42.8672 213.346 42.8672ZM215.693 31.734H210.354L210.465 31.1666C210.718 29.8983 211.159 28.897 211.78 28.1914C212.439 27.438 213.22 27.0566 214.102 27.0566C215.46 27.0566 216.202 27.8481 216.202 29.2785C216.202 30.0604 216.071 30.7851 215.814 31.4288L215.693 31.734ZM211.552 30.7804H215.019C215.159 30.3226 215.232 29.8172 215.232 29.2785C215.232 28.1627 214.689 28.0102 214.102 28.0102C213.515 28.0102 212.992 28.2724 212.517 28.816C212.1 29.2928 211.78 29.9507 211.552 30.7804Z" fill="#263680"/>
</g>
<g clip-path="url(#clip0_1320_1264)">
<mask id="mask2_1320_1264" style="mask-type:luminance" maskUnits="userSpaceOnUse" x="0" y="0" width="52" height="55">
<path d="M51.79 0H0.288086V54.6699H51.79V0Z" fill="white"/>
</mask>
<g mask="url(#mask2_1320_1264)">
<mask id="mask3_1320_1264" style="mask-type:luminance" maskUnits="userSpaceOnUse" x="9" y="11" width="34" height="44">
<path d="M42.9406 11.4761H9.08008V54.9164H42.9406V11.4761Z" fill="white"/>
</mask>
<g mask="url(#mask3_1320_1264)">
<path d="M26.0117 53.1084C21.6207 53.1084 17.7302 50.9605 15.3492 47.6722C16.2134 47.4554 16.9532 47.0958 17.4961 46.7805C17.6555 46.6893 17.8473 46.6894 18.0117 46.7706C19.1997 47.3593 20.5123 47.7411 21.8448 47.7411C23.1773 47.7411 24.475 47.3175 25.3342 46.9307C25.4911 46.8618 25.6356 46.7928 25.7701 46.7238C25.922 46.6475 26.1014 46.6475 26.2533 46.7238C26.3878 46.7903 26.5347 46.8593 26.6892 46.9307C27.5484 47.3175 28.7938 47.7411 30.1786 47.7411C31.5634 47.7411 32.8187 47.3593 34.0092 46.7682C34.1736 46.6869 34.3679 46.6844 34.5273 46.778C35.0702 47.0958 35.8149 47.4505 36.6817 47.6672C34.3006 50.958 30.4102 53.1084 26.0167 53.1084M27.6182 14.7618L24.3205 16.7496V14.7618H27.6182ZM24.3205 19.3335L27.6979 17.2964V19.8852L24.3205 21.9223V19.3335ZM13.0279 41.9281C12.9457 41.3443 12.9009 40.7482 12.9009 40.1423V35.9721H12.988C13.3019 36.1446 13.6605 36.2455 14.0416 36.2529C14.6518 36.2652 15.2296 36.0337 15.673 35.6051C16.1213 35.1716 16.3778 34.5681 16.3778 33.9499V33.1272C16.3778 32.2971 17.0578 31.6074 17.8946 31.5926C18.3006 31.5852 18.6867 31.7404 18.9855 32.0286C19.2944 32.3291 19.4712 32.7429 19.4712 33.1691V35.248C19.4712 36.716 20.6767 37.9328 22.1561 37.9624C22.1736 37.9624 22.191 37.9624 22.2085 37.9624C22.9183 37.9624 23.5883 37.689 24.1038 37.1889C24.6393 36.6692 24.9482 35.9475 24.9482 35.2086V32.9474C24.9482 32.6444 25.0752 32.3488 25.2944 32.1345C25.5061 31.9301 25.7826 31.8192 26.069 31.8242C26.6642 31.8365 27.1449 32.3242 27.1449 32.9153V33.9449C27.1449 35.413 28.3504 36.6298 29.8299 36.6594C30.5571 36.6741 31.2496 36.3983 31.7776 35.8859C32.3131 35.3662 32.6219 34.6445 32.6219 33.9031V32.9498C32.6219 32.6469 32.7489 32.3513 32.9681 32.137C33.1798 31.9325 33.4563 31.8217 33.7402 31.8266C34.333 31.8389 34.8162 32.3267 34.8162 32.9178V35.6987C34.8162 36.9254 35.8249 37.9451 37.0627 37.9673H37.0877C37.9868 37.9501 38.7564 37.4057 39.1151 36.6421V40.1472C39.1151 40.7531 39.0702 41.3468 38.988 41.9305H13.0279V41.9281ZM13.9893 45.3124H14.0192C14.0192 45.3124 14.0067 45.3272 13.9992 45.3321C13.9967 45.3248 13.9918 45.3174 13.9893 45.3124ZM38.0217 45.3297C38.0217 45.3297 38.0092 45.3174 38.0017 45.3124H38.0291C38.0291 45.3124 38.0241 45.3248 38.0217 45.3297ZM31.1175 22.2326H29.2769V14.1731C29.2769 13.6362 28.8361 13.2002 28.2931 13.2002H23.7278C23.1848 13.2002 22.7439 13.6362 22.7439 14.1731V22.2326H20.9033C15.6207 22.2326 11.3218 26.4816 11.3218 31.7059V40.1423C11.3218 48.1525 17.9121 54.67 26.0117 54.67C34.1113 54.67 40.6991 48.1525 40.6991 40.1447V31.7059C40.6991 26.4816 36.4002 22.2326 31.1175 22.2326Z" fill="#FED967"/>
</g>
<mask id="mask4_1320_1264" style="mask-type:luminance" maskUnits="userSpaceOnUse" x="39" y="27" width="15" height="15">
<path d="M53.5034 27.2451H39.8621V41.0117H53.5034V27.2451Z" fill="white"/>
</mask>
<g mask="url(#mask4_1320_1264)">
<path d="M47.7476 29.1392L42.9406 31.5802C42.4275 31.8413 42.1038 32.3634 42.1038 32.9349V39.2381C42.1038 40.0633 42.7663 40.748 43.6006 40.7628C43.648 40.7628 43.6953 40.7628 43.7426 40.7628C47.897 40.7628 51.2619 37.6543 51.2619 33.8167C51.2619 32.1836 50.6492 30.6836 49.6256 29.4988C49.1623 28.9618 48.3827 28.814 47.7476 29.1367" fill="#B3DFEE"/>
</g>
<mask id="mask5_1320_1264" style="mask-type:luminance" maskUnits="userSpaceOnUse" x="31" y="11" width="24" height="20">
<path d="M54.0313 11.7368H31.5208V30.3657H54.0313V11.7368Z" fill="white"/>
</mask>
<g mask="url(#mask5_1320_1264)">
<path d="M42.9727 30.0479L47.9018 27.5453C50.1209 26.3162 51.7897 24.0698 51.7897 21.4983C51.7897 16.1926 48.5817 13.4585 44.2778 13.4585C40.2181 13.4585 36.4522 16.5227 33.9018 20.1411C33.5506 20.7125 33.9391 21.0574 34.3127 21.1362C38.4422 21.9712 41.6178 25.358 42.0512 29.5405C42.0985 29.9839 42.5717 30.2499 42.9727 30.0454" fill="#65A8DC"/>
</g>
<mask id="mask6_1320_1264" style="mask-type:luminance" maskUnits="userSpaceOnUse" x="-2" y="27" width="15" height="15">
<path d="M12.2158 27.2451H-1.42554V41.0117H12.2158V27.2451Z" fill="white"/>
</mask>
<g mask="url(#mask6_1320_1264)">
<path d="M9.13746 31.5801L4.33048 29.1391C3.69537 28.8165 2.91579 28.9643 2.45253 29.5012C1.42886 30.686 0.816162 32.1836 0.816162 33.8192C0.816162 37.6543 4.18354 40.7653 8.33547 40.7653C8.38279 40.7653 8.43011 40.7653 8.47743 40.7653C9.3118 40.7505 9.97432 40.0657 9.97432 39.2406V32.9373C9.97432 32.3659 9.65053 31.8437 9.13746 31.5826" fill="#B3DFEE"/>
</g>
<mask id="mask7_1320_1264" style="mask-type:luminance" maskUnits="userSpaceOnUse" x="-2" y="11" width="23" height="20">
<path d="M20.557 11.7368H-1.95361V30.3657H20.557V11.7368Z" fill="white"/>
</mask>
<g mask="url(#mask7_1320_1264)">
<path d="M17.7675 21.1386C18.1411 21.0598 18.5297 20.715 18.1785 20.1435C15.6256 16.5226 11.8597 13.4609 7.80241 13.4609C3.49606 13.4609 0.288086 16.1926 0.288086 21.5007C0.288086 24.0698 1.95683 26.3162 4.17601 27.5453L9.10502 30.0479C9.50602 30.2523 9.97925 29.9863 10.0266 29.5429C10.4599 25.3605 13.638 21.9736 17.765 21.1386" fill="#65A8DC"/>
</g>
<path d="M26.039 2.22177C27.4288 4.64799 28.3553 6.71951 28.3553 7.43629C28.3553 8.69989 27.3167 9.72703 26.039 9.72703C24.7613 9.72703 23.7227 8.69989 23.7227 7.43629C23.7227 6.71951 24.6492 4.65045 26.039 2.22177ZM26.039 11.2911C28.1859 11.2911 29.9344 9.562 29.9344 7.43875C29.9344 5.80321 27.7551 2.00009 26.8161 0.438443C26.6542 0.167495 26.3553 0 26.039 0C25.7227 0 25.4238 0.167495 25.2594 0.438443C24.0963 2.37695 22.1411 5.86725 22.1411 7.43629C22.1411 9.55953 23.8896 11.2887 26.0365 11.2887" fill="#F088A7"/>
<path d="M10.973 6.05188C11.7824 6.05188 12.44 6.70215 12.44 7.50268C12.44 8.30321 11.7824 8.95348 10.973 8.95348C10.1635 8.95348 9.50598 8.30321 9.50598 7.50268C9.50598 6.70215 10.1635 6.05188 10.973 6.05188ZM10.973 10.5151C11.77 10.5151 12.4948 10.2072 13.0402 9.70968C13.8771 10.1777 17.9169 12.6532 19.1797 17.545C19.2694 17.8972 19.5907 18.1312 19.9443 18.1312C20.0091 18.1312 20.0739 18.1238 20.1411 18.1066C20.5645 18.0007 20.8186 17.5746 20.7115 17.1583C19.3267 11.7935 15.0701 9.05694 13.8895 8.38696C13.9767 8.10616 14.024 7.81058 14.024 7.50268C14.024 5.84251 12.6567 4.49023 10.978 4.49023C9.29926 4.49023 7.93188 5.84251 7.93188 7.50268C7.93188 9.16285 9.29926 10.5151 10.978 10.5151" fill="#B5DABF"/>
<path d="M41.1049 6.05188C41.9143 6.05188 42.5719 6.70215 42.5719 7.50268C42.5719 8.30321 41.9143 8.95348 41.1049 8.95348C40.2954 8.95348 39.6379 8.30321 39.6379 7.50268C39.6379 6.70215 40.2954 6.05188 41.1049 6.05188ZM31.9417 18.1066C32.0065 18.1238 32.0737 18.1312 32.1385 18.1312C32.4897 18.1312 32.811 17.8972 32.9031 17.545C34.1609 12.6778 38.2008 10.1826 39.0426 9.70968C39.5856 10.2072 40.3103 10.5151 41.1074 10.5151C42.7861 10.5151 44.1534 9.16285 44.1534 7.50268C44.1534 5.84251 42.7861 4.49023 41.1074 4.49023C39.4286 4.49023 38.0613 5.84251 38.0613 7.50268C38.0613 7.81058 38.1086 8.10862 38.1958 8.38696C37.0152 9.05694 32.7587 11.791 31.3739 17.1583C31.2668 17.577 31.5208 18.0007 31.9442 18.1066" fill="#B5DABF"/>
</g>
<mask id="mask8_1320_1264" style="mask-type:luminance" maskUnits="userSpaceOnUse" x="0" y="1" width="53" height="55">
<path d="M52.2881 1.00732H0.288086V55.9999H52.2881V1.00732Z" fill="white"/>
</mask>
<g mask="url(#mask8_1320_1264)">
<path d="M43.9917 40.1319H43.8472C42.8858 40.1122 42.1038 39.3191 42.1038 38.3585V32.0552C42.1038 31.3877 42.4774 30.7842 43.0751 30.4813L47.8821 28.0403C48.6268 27.6634 49.5234 27.8358 50.0639 28.4615C51.1747 29.7448 51.7601 31.2941 51.7601 32.9395C51.7601 36.9052 48.2756 40.1319 43.9917 40.1319ZM48.1112 28.4787L43.3043 30.9197C42.8709 31.1389 42.6019 31.5749 42.6019 32.0552V38.3585C42.6019 39.0506 43.1648 39.6245 43.8547 39.6393H43.9917C48.0016 39.6393 51.2619 36.6342 51.2619 32.942C51.2619 31.4173 50.7165 29.9788 49.6853 28.7841C49.2943 28.3334 48.6467 28.2078 48.1087 28.4812L48.1112 28.4787Z" fill="#263680"/>
<path d="M42.9333 29.4889C42.7913 29.4889 42.6494 29.4544 42.5174 29.383C42.2583 29.2426 42.084 28.9839 42.0541 28.6908C41.6307 24.6192 38.5996 21.3309 34.5124 20.5033C34.1911 20.4343 33.937 20.2422 33.825 19.9885C33.7478 19.8111 33.7054 19.518 33.9371 19.1387C36.9881 14.8109 40.8436 12.3379 44.5273 12.3379C49.3144 12.3379 52.2882 15.5129 52.2882 20.624C52.2882 23.1142 50.749 25.5133 48.2733 26.8853L43.3368 29.3928C43.2073 29.4569 43.0703 29.4914 42.9333 29.4914V29.4889ZM44.5273 12.8281C41.0105 12.8281 37.3019 15.2247 34.3555 19.4072C34.2658 19.555 34.2384 19.6904 34.2833 19.7939C34.3281 19.8998 34.4601 19.9885 34.6145 20.0205C38.9134 20.89 42.1039 24.3532 42.5498 28.6391C42.5647 28.7721 42.6394 28.8854 42.7565 28.947C42.8686 29.0061 42.9981 29.0086 43.1101 28.9495L48.0392 26.4469C50.3505 25.166 51.7926 22.932 51.7926 20.619C51.7926 15.8134 49.0105 12.8256 44.5298 12.8256L44.5273 12.8281Z" fill="#263680"/>
<path d="M8.58458 40.1321C4.30064 40.1321 0.813721 36.9053 0.813721 32.9396C0.813721 31.2942 1.40152 29.7474 2.50986 28.4616C3.05033 27.8359 3.94946 27.6611 4.69168 28.0404L9.49865 30.4814C10.0989 30.7868 10.47 31.3903 10.47 32.0553V38.3586C10.47 39.3192 9.68794 40.1123 8.72655 40.1321C8.67923 40.1321 8.62941 40.1321 8.58209 40.1321H8.58458ZM3.86976 28.336C3.50114 28.336 3.14249 28.4911 2.89093 28.7843C1.8598 29.9789 1.31434 31.4149 1.31434 32.9421C1.31434 36.6368 4.57711 39.6419 8.58707 39.6419C8.6319 39.6419 8.67673 39.6419 8.72157 39.6419C9.41397 39.6296 9.97686 39.0557 9.97686 38.361V32.0578C9.97686 31.5775 9.70787 31.1415 9.27449 30.9223L4.46752 28.4813C4.27823 28.3852 4.07399 28.3384 3.87225 28.3384L3.86976 28.336Z" fill="#263680"/>
<path d="M9.64301 29.4889C9.50602 29.4889 9.36903 29.4569 9.23952 29.3904L4.3105 26.8878C1.82731 25.5109 0.288086 23.1118 0.288086 20.6215C0.288086 15.5105 3.26193 12.3354 8.04898 12.3354C11.7327 12.3354 15.5882 14.8109 18.6293 19.1239C18.8709 19.5156 18.8286 19.8087 18.7513 19.986C18.6418 20.2397 18.3852 20.4319 18.0664 20.5008H18.0639C13.9768 21.3285 10.9456 24.6168 10.5222 28.6884C10.4923 28.9815 10.318 29.2401 10.0589 29.3805C9.92694 29.452 9.78497 29.4864 9.64301 29.4864V29.4889ZM8.04898 12.8281C3.56829 12.8281 0.786218 15.8134 0.786218 20.6215C0.786218 22.9344 2.22831 25.1685 4.54711 26.4518L9.46866 28.9519C9.58323 29.0086 9.71025 29.0086 9.82233 28.9495C9.93939 28.8879 10.0141 28.7746 10.0291 28.6416C10.4749 24.3557 13.6629 20.8925 17.9643 20.023C18.1187 19.9885 18.2482 19.8998 18.2956 19.7964C18.3404 19.6929 18.313 19.5574 18.2159 19.3973C15.2769 15.2297 11.5708 12.833 8.05147 12.833L8.04898 12.8281Z" fill="#263680"/>
<path d="M26.039 12.7911C23.7526 12.7911 21.8945 10.9536 21.8945 8.69237C21.8945 7.1455 23.6081 3.9631 25.0477 1.5689C25.2569 1.22406 25.6355 1.00977 26.0415 1.00977C26.4475 1.00977 26.826 1.22406 27.0328 1.56644C28.2108 3.52958 30.1859 7.06176 30.1859 8.69483C30.1859 10.956 28.3254 12.7935 26.0415 12.7935L26.039 12.7911ZM26.039 1.49994C25.8098 1.49994 25.5932 1.62309 25.4736 1.82015C23.516 5.08384 22.3927 7.58887 22.3927 8.69237C22.3927 10.6801 24.029 12.2984 26.039 12.2984C28.049 12.2984 29.6853 10.6801 29.6853 8.69237C29.6853 7.12333 27.5284 3.36209 26.6019 1.81768C26.4848 1.62309 26.2681 1.5024 26.039 1.5024V1.49994Z" fill="#263680"/>
<path d="M19.942 17.5179C19.4663 17.5179 19.0529 17.2002 18.9358 16.7445C17.7627 12.1975 14.1214 9.7688 13.0678 9.15054C12.475 9.63578 11.7378 9.90181 10.9707 9.90181C9.15499 9.90181 7.67554 8.43869 7.67554 6.64304C7.67554 4.8474 9.15499 3.38428 10.9707 3.38428C12.7864 3.38428 14.2658 4.84493 14.2658 6.64304C14.2658 6.90167 14.2359 7.16031 14.1737 7.41155C15.6183 8.2638 19.6008 11.0299 20.9458 16.2395C21.0155 16.5055 20.9732 16.7814 20.8337 17.0179C20.6942 17.2543 20.4676 17.4218 20.1986 17.4883C20.1139 17.5105 20.0292 17.5204 19.942 17.5204V17.5179ZM13.0031 8.5446L13.1625 8.63328C13.9819 9.09143 18.1288 11.626 19.419 16.6213C19.4912 16.9021 19.7951 17.0795 20.0765 17.0056C20.216 16.9711 20.3331 16.8824 20.4078 16.7617C20.4825 16.641 20.5024 16.4957 20.4676 16.3578C19.1151 11.1186 14.9931 8.43622 13.7627 7.73915L13.5909 7.64062L13.6481 7.45342C13.7303 7.18986 13.7727 6.91645 13.7727 6.64058C13.7727 5.11588 12.5174 3.87445 10.9757 3.87445C9.43394 3.87445 8.17865 5.11588 8.17865 6.64058C8.17865 8.16528 9.43394 9.40671 10.9757 9.40671C11.678 9.40671 12.353 9.14315 12.8735 8.66776L13.008 8.5446H13.0031ZM10.9732 8.3377C10.0267 8.3377 9.25711 7.57658 9.25711 6.64058C9.25711 5.70458 10.0267 4.94346 10.9732 4.94346C11.9196 4.94346 12.6892 5.70458 12.6892 6.64058C12.6892 7.57658 11.9196 8.3377 10.9732 8.3377ZM10.9732 5.43609C10.3007 5.43609 9.75524 5.97552 9.75524 6.64058C9.75524 7.30563 10.3007 7.84507 10.9732 7.84507C11.6456 7.84507 12.1911 7.30563 12.1911 6.64058C12.1911 5.97552 11.6456 5.43609 10.9732 5.43609Z" fill="#263680"/>
<path d="M32.1362 17.764C32.049 17.764 31.9618 17.7542 31.8796 17.732C31.3242 17.5916 30.988 17.0325 31.1299 16.4832C32.4749 11.2736 36.4599 8.50745 37.902 7.6552C37.8398 7.40396 37.8099 7.14779 37.8099 6.88669C37.8099 5.09105 39.2893 3.62793 41.105 3.62793C42.9207 3.62793 44.4002 5.08858 44.4002 6.88669C44.4002 8.6848 42.9232 10.1455 41.105 10.1455C40.3379 10.1455 39.6007 9.8819 39.0104 9.39666C37.9568 10.0198 34.3105 12.4608 33.1424 16.9906C33.0253 17.4463 32.6119 17.764 32.1362 17.764ZM41.105 4.12056C39.5633 4.12056 38.308 5.362 38.308 6.88669C38.308 7.16257 38.3503 7.43598 38.4325 7.69954L38.4923 7.88674L38.3205 7.98526C37.0901 8.68234 32.968 11.3647 31.6156 16.6039C31.5434 16.8896 31.7177 17.1803 32.0041 17.2541C32.2856 17.3256 32.5895 17.1482 32.6617 16.8699C33.9469 11.8943 38.0988 9.34247 38.9182 8.88186L39.0776 8.79318L39.2121 8.91634C39.7327 9.39419 40.4051 9.65529 41.11 9.65529C42.6517 9.65529 43.907 8.41385 43.907 6.88916C43.907 5.36446 42.6517 4.12303 41.11 4.12303L41.105 4.12056ZM41.105 8.58381C40.1586 8.58381 39.389 7.8227 39.389 6.88669C39.389 5.95069 40.1586 5.18957 41.105 5.18957C42.0515 5.18957 42.8211 5.95069 42.8211 6.88669C42.8211 7.8227 42.0515 8.58381 41.105 8.58381ZM41.105 5.68221C40.4325 5.68221 39.8871 6.22164 39.8871 6.88669C39.8871 7.55175 40.4325 8.09118 41.105 8.09118C41.7775 8.09118 42.323 7.55175 42.323 6.88669C42.323 6.22164 41.7775 5.68221 41.105 5.68221Z" fill="#263680"/>
<path d="M26.0415 56C17.8049 56 11.1025 49.3717 11.1025 41.226V32.7896C11.1025 27.4298 15.511 23.07 20.9332 23.07H22.2756C22.4126 23.07 22.5247 22.9592 22.5247 22.8237V15.2569C22.5247 14.5844 23.0776 14.0376 23.7576 14.0376H28.323C29.0029 14.0376 29.5558 14.5844 29.5558 15.2569V22.6168C29.5558 22.8656 29.7601 23.0676 30.0116 23.0676H31.1474C36.5596 23.0676 40.968 27.4273 40.9755 32.7872V41.226C40.9755 49.3717 34.2756 55.9976 26.039 55.9976L26.0415 56ZM20.9307 23.5626C15.785 23.5626 11.5982 27.7032 11.5982 32.7896V41.226C11.5982 49.1007 18.0764 55.5074 26.039 55.5074C34.0017 55.5074 40.4774 49.1007 40.4774 41.2284V32.7921C40.4699 27.7032 36.2831 23.5651 31.1474 23.5651H30.0116C29.4861 23.5651 29.0577 23.1414 29.0577 22.6217V15.2618C29.0577 14.8603 28.7289 14.5352 28.323 14.5352H23.7576C23.3516 14.5352 23.0228 14.8603 23.0228 15.2618V22.8286C23.0228 23.235 22.6866 23.5676 22.2756 23.5676H20.9332L20.9307 23.5626Z" fill="#263680"/>
<mask id="mask9_1320_1264" style="mask-type:luminance" maskUnits="userSpaceOnUse" x="10" y="13" width="32" height="37">
<path d="M41.6107 13.7764H10.4102V49.2188H41.6107V13.7764Z" fill="white"/>
</mask>
<g mask="url(#mask9_1320_1264)">
<path d="M30.1759 48.9724C29.0228 48.9724 27.8123 48.6916 26.5844 48.1398C26.425 48.066 26.2781 47.997 26.1411 47.928C26.0589 47.8861 25.9642 47.8861 25.882 47.928C25.7451 47.997 25.5956 48.0684 25.4337 48.1398C24.2058 48.6916 22.9979 48.9724 21.8447 48.9724C20.5645 48.9724 19.237 48.6374 17.902 47.9773C17.8098 47.9305 17.7052 47.9329 17.623 47.9797C16.8957 48.4034 16.151 48.7113 15.4113 48.8985C15.2793 48.9305 15.1423 48.8517 15.1075 48.7212C15.0726 48.5881 15.1548 48.4551 15.2868 48.4206C15.9817 48.2458 16.6815 47.9551 17.369 47.5561C17.5956 47.4231 17.8796 47.4157 18.1211 47.5388C19.3864 48.1645 20.6392 48.4822 21.8422 48.4822C22.9231 48.4822 24.0639 48.2162 25.227 47.694C25.3814 47.6275 25.5234 47.5585 25.6529 47.492C25.8746 47.3812 26.1386 47.3787 26.3603 47.492C26.4923 47.5585 26.6367 47.625 26.7886 47.6965C27.9518 48.2187 29.09 48.4847 30.171 48.4847C31.374 48.4847 32.6268 48.1669 33.8895 47.5388C34.1336 47.4157 34.4175 47.4231 34.6467 47.5585C35.1074 47.827 35.8422 48.1965 36.7363 48.4206C36.8708 48.4551 36.9505 48.5881 36.9157 48.7187C36.8808 48.8492 36.7463 48.9305 36.6143 48.896C35.6629 48.6571 34.8808 48.2679 34.3926 47.9822C34.3104 47.9354 34.2083 47.9329 34.1137 47.9822C32.7812 48.6448 31.4561 48.9798 30.171 48.9798L30.1759 48.9724ZM37.0651 39.1986C35.6878 39.1715 34.5695 38.0433 34.5695 36.6837V33.9028C34.5695 33.4446 34.1959 33.0678 33.7376 33.0579C33.5134 33.0554 33.3067 33.1392 33.1423 33.2968C32.9705 33.4643 32.8708 33.6959 32.8708 33.9348V34.888C32.8708 35.6935 32.5371 36.4792 31.9518 37.0458C31.374 37.6074 30.6168 37.9103 29.8223 37.8906C28.2083 37.8611 26.8933 36.5334 26.8933 34.9299V33.9003C26.8933 33.4422 26.5197 33.0653 26.0614 33.0554C25.8397 33.053 25.6305 33.1367 25.4661 33.2944C25.2942 33.4619 25.1946 33.6934 25.1946 33.9323V36.1935C25.1946 36.999 24.8609 37.7847 24.2756 38.3512C23.7152 38.8956 22.9779 39.1961 22.2058 39.1961H22.151C20.5346 39.1641 19.2195 37.8364 19.2195 36.2354V34.1565C19.2195 33.7968 19.0701 33.4471 18.8086 33.1934C18.5595 32.952 18.2307 32.819 17.897 32.8264C17.1971 32.8387 16.6243 33.4175 16.6243 34.1146V34.9348C16.6243 35.6171 16.3403 36.2846 15.8447 36.765C15.354 37.2403 14.7089 37.4916 14.034 37.4817C13.6479 37.4743 13.2669 37.3783 12.9231 37.2009H12.8982C12.7612 37.2009 12.6492 37.0901 12.6492 36.9546C12.6492 36.8191 12.7612 36.7083 12.8982 36.7083H13.0502L13.1075 36.7379C13.3939 36.8955 13.7202 36.9817 14.0464 36.9891C14.5894 37.0014 15.105 36.7945 15.4985 36.4127C15.8995 36.0235 16.1286 35.4841 16.1286 34.9324V34.1121C16.1286 33.149 16.9182 32.3485 17.8895 32.3313C18.3627 32.3214 18.8136 32.5037 19.1598 32.8387C19.5159 33.1835 19.7202 33.6638 19.7202 34.154V36.2329C19.7202 37.568 20.816 38.6739 22.161 38.701H22.2083C22.8509 38.701 23.4636 38.4522 23.9294 37.9965C24.4175 37.5236 24.699 36.8659 24.699 36.191V33.9299C24.699 33.5604 24.8534 33.2008 25.1199 32.9397C25.3789 32.6884 25.7152 32.5579 26.0713 32.5579C26.8011 32.5727 27.3939 33.1712 27.3939 33.8954V34.925C27.3939 36.26 28.4898 37.366 29.8347 37.3931C30.4823 37.4103 31.1224 37.1566 31.6031 36.6886C32.0913 36.2157 32.3727 35.5555 32.3727 34.8831V33.9299C32.3727 33.5604 32.5271 33.2008 32.7936 32.9397C33.0527 32.6884 33.3939 32.5628 33.7451 32.5579C34.4748 32.5727 35.0676 33.1712 35.0676 33.8954V36.6763C35.0676 37.7699 35.9667 38.6788 37.0701 38.6985H37.09C37.8522 38.6838 38.562 38.2207 38.8933 37.5162C38.9505 37.3931 39.1 37.3389 39.2245 37.3955C39.349 37.4522 39.4038 37.6 39.3466 37.7231C38.9356 38.5976 38.0539 39.1715 37.0975 39.1912H37.0676L37.0651 39.1986ZM24.3204 23.156C24.2357 23.156 24.1535 23.1141 24.1087 23.0378C24.0365 22.922 24.0738 22.7693 24.1909 22.7003L27.5682 20.6633C27.6853 20.5918 27.8397 20.6288 27.9094 20.7445C27.9817 20.8603 27.9443 21.013 27.8273 21.082L24.4499 23.119C24.4101 23.1437 24.3652 23.156 24.3204 23.156ZM24.3204 17.9809C24.2357 17.9809 24.1535 17.939 24.1087 17.8626C24.0365 17.7469 24.0738 17.5942 24.1909 17.5252L27.4885 15.5374C27.6056 15.466 27.76 15.5029 27.8297 15.6187C27.902 15.7345 27.8646 15.8872 27.7475 15.9562L24.4499 17.9439C24.4101 17.9686 24.3652 17.9809 24.3204 17.9809Z" fill="#263680"/>
</g>
<mask id="mask10_1320_1264" style="mask-type:luminance" maskUnits="userSpaceOnUse" x="10" y="41" width="32" height="3">
<path d="M41.2396 41.041H10.8411V43.5042H41.2396V41.041Z" fill="white"/>
</mask>
<g mask="url(#mask10_1320_1264)">
<path d="M38.7465 43.2578H13.3318C13.1948 43.2578 13.0828 43.1469 13.0828 43.0115C13.0828 42.876 13.1948 42.7651 13.3318 42.7651H38.749C38.886 42.7651 38.9981 42.876 38.9981 43.0115C38.9981 43.1469 38.886 43.2578 38.749 43.2578H38.7465Z" fill="#263680"/>
</g>
<mask id="mask11_1320_1264" style="mask-type:luminance" maskUnits="userSpaceOnUse" x="21" y="6" width="10" height="6">
<path d="M30.8186 6.64062H21.2021V11.3945H30.8186V6.64062Z" fill="white"/>
</mask>
<g mask="url(#mask11_1320_1264)">
<path d="M26.0092 11.1481C24.5945 11.1481 23.4438 10.0101 23.4438 8.61106C23.4438 8.47559 23.5559 8.36475 23.6929 8.36475C23.8299 8.36475 23.942 8.47559 23.942 8.61106C23.942 9.73919 24.871 10.6555 26.0092 10.6555C27.1475 10.6555 28.0765 9.73919 28.0765 8.61106C28.0765 8.47559 28.1886 8.36475 28.3255 8.36475C28.4625 8.36475 28.5746 8.47559 28.5746 8.61106C28.5746 10.0101 27.4239 11.1481 26.0092 11.1481Z" fill="#263680"/>
</g>
<mask id="mask12_1320_1264" style="mask-type:luminance" maskUnits="userSpaceOnUse" x="22" y="1" width="8" height="5">
<path d="M29.6282 1.15039H22.4924V5.65305H29.6282V1.15039Z" fill="white"/>
</mask>
<g mask="url(#mask12_1320_1264)">
<path d="M27.135 5.40695C27.0453 5.40695 26.9582 5.36015 26.9158 5.27641L26.0441 3.65072L25.2047 5.24685C25.1425 5.36754 24.9905 5.41434 24.8685 5.3503C24.7465 5.28872 24.6991 5.13847 24.7639 5.01777L25.8224 3.00783C25.8648 2.92655 25.9495 2.87482 26.0416 2.87482C26.1437 2.8699 26.2184 2.92409 26.2633 3.00537L27.3567 5.04487C27.4214 5.16556 27.3741 5.31335 27.2546 5.3774C27.2172 5.3971 27.1773 5.40695 27.1375 5.40695H27.135Z" fill="#263680"/>
</g>
<mask id="mask13_1320_1264" style="mask-type:luminance" maskUnits="userSpaceOnUse" x="44" y="18" width="10" height="9">
<path d="M53.0703 18.5918H44.196V26.501H53.0703V18.5918Z" fill="white"/>
</mask>
<g mask="url(#mask13_1320_1264)">
<path d="M46.6868 26.2546C46.5996 26.2546 46.5149 26.2102 46.4701 26.1314C46.4028 26.0132 46.4427 25.8629 46.5622 25.7964C48.5099 24.6979 49.429 23.3357 49.8574 22.385C50.3231 21.3554 50.3281 20.5721 50.3281 20.5647C50.3281 20.4292 50.4402 20.3184 50.5772 20.3184C50.7142 20.3184 50.8262 20.4267 50.8262 20.5622C50.8262 20.7002 50.7963 23.9737 46.8088 26.2226C46.769 26.2447 46.7266 26.2546 46.6868 26.2546Z" fill="#263680"/>
</g>
<mask id="mask14_1320_1264" style="mask-type:luminance" maskUnits="userSpaceOnUse" x="42" y="32" width="10" height="8">
<path d="M51.8173 32.5508H42.2158V39.9107H51.8173V32.5508Z" fill="white"/>
</mask>
<g mask="url(#mask14_1320_1264)">
<path d="M44.7563 38.514C44.6343 38.514 44.5272 38.4254 44.5097 38.3022C44.4898 38.1667 44.5844 38.0436 44.7214 38.0239C47.5209 37.6224 48.7663 35.541 48.7787 35.5213C48.8485 35.4031 49.0004 35.3637 49.1199 35.4302C49.2395 35.4967 49.2793 35.6469 49.2121 35.7652C49.1573 35.8588 47.8447 38.0731 44.7962 38.5091C44.7837 38.5091 44.7712 38.5116 44.7613 38.5116L44.7563 38.514Z" fill="#263680"/>
</g>
<mask id="mask15_1320_1264" style="mask-type:luminance" maskUnits="userSpaceOnUse" x="-1" y="18" width="10" height="9">
<path d="M8.38277 18.5918H-0.491455V26.501H8.38277V18.5918Z" fill="white"/>
</mask>
<g mask="url(#mask15_1320_1264)">
<path d="M5.88972 26.2546C5.84738 26.2546 5.80504 26.2447 5.76768 26.2226C1.78013 23.9737 1.75024 20.7002 1.75024 20.5622C1.75024 20.4268 1.86232 20.3159 1.99931 20.3159C2.1363 20.3159 2.24838 20.4268 2.24838 20.5622C2.24838 20.5943 2.29072 23.6954 6.01425 25.794C6.13381 25.8605 6.17615 26.0107 6.10641 26.129C6.06158 26.2078 5.97689 26.2521 5.88972 26.2521V26.2546Z" fill="#263680"/>
</g>
<mask id="mask16_1320_1264" style="mask-type:luminance" maskUnits="userSpaceOnUse" x="0" y="32" width="11" height="8">
<path d="M10.3603 32.5508H0.758789V39.9107H10.3603V32.5508Z" fill="white"/>
</mask>
<g mask="url(#mask16_1320_1264)">
<path d="M7.82225 38.514C7.82225 38.514 7.79734 38.514 7.78738 38.5116C4.73881 38.0756 3.42623 35.8612 3.37144 35.7676C3.30419 35.6494 3.34404 35.4991 3.46359 35.4326C3.58315 35.3661 3.73508 35.4055 3.80232 35.5237C3.81478 35.5434 5.05762 37.6248 7.85712 38.0263C7.9941 38.046 8.08875 38.1716 8.06882 38.3046C8.05139 38.4278 7.94429 38.5165 7.82225 38.5165V38.514Z" fill="#263680"/>
</g>
<mask id="mask17_1320_1264" style="mask-type:luminance" maskUnits="userSpaceOnUse" x="15" y="42" width="9" height="3">
<path d="M23.0627 42.4722H15.3267V44.9353H23.0627V42.4722Z" fill="white"/>
</mask>
<g mask="url(#mask17_1320_1264)">
<path d="M20.5694 44.6889H17.8147C17.6778 44.6889 17.5657 44.5781 17.5657 44.4426C17.5657 44.3071 17.6778 44.1963 17.8147 44.1963H20.5694C20.7064 44.1963 20.8185 44.3071 20.8185 44.4426C20.8185 44.5781 20.7064 44.6889 20.5694 44.6889Z" fill="#263680"/>
</g>
<mask id="mask18_1320_1264" style="mask-type:luminance" maskUnits="userSpaceOnUse" x="20" y="42" width="17" height="3">
<path d="M36.5595 42.4722H20.3652V44.9353H36.5595V42.4722Z" fill="white"/>
</mask>
<g mask="url(#mask18_1320_1264)">
<path d="M34.069 44.6889H22.856C22.719 44.6889 22.6069 44.5781 22.6069 44.4426C22.6069 44.3071 22.719 44.1963 22.856 44.1963H34.069C34.2059 44.1963 34.318 44.3071 34.318 44.4426C34.318 44.5781 34.2059 44.6889 34.069 44.6889Z" fill="#263680"/>
</g>
<mask id="mask19_1320_1264" style="mask-type:luminance" maskUnits="userSpaceOnUse" x="13" y="29" width="8" height="4">
<path d="M20.3778 29.0234H13.6455V32.3512H20.3778V29.0234Z" fill="white"/>
</mask>
<g mask="url(#mask19_1320_1264)">
<path d="M16.1363 32.1048C16.0889 32.1048 16.0416 32.0924 16.0018 32.0653C15.8872 31.9915 15.8548 31.8387 15.9271 31.7254C15.952 31.686 16.5796 30.7476 17.8872 30.7476C18.0242 30.7476 18.1363 30.8584 18.1363 30.9939C18.1363 31.1293 18.0242 31.2402 17.8872 31.2402C16.8586 31.2402 16.3654 31.9619 16.3455 31.9939C16.2982 32.0653 16.2185 32.1048 16.1363 32.1048Z" fill="#263680"/>
</g>
<mask id="mask20_1320_1264" style="mask-type:luminance" maskUnits="userSpaceOnUse" x="23" y="29" width="8" height="4">
<path d="M30.2284 29.4517H23.7676V32.7794H30.2284V29.4517Z" fill="white"/>
</mask>
<g mask="url(#mask20_1320_1264)">
<path d="M27.7378 32.533C27.6506 32.533 27.5635 32.4862 27.5186 32.4049C27.5012 32.3754 27.0927 31.666 26.2583 31.666C26.1214 31.666 26.0093 31.5551 26.0093 31.4197C26.0093 31.2842 26.1214 31.1733 26.2583 31.1733C27.3941 31.1733 27.9346 32.1266 27.957 32.1685C28.0217 32.2892 27.9794 32.4369 27.8573 32.5035C27.82 32.5232 27.7776 32.533 27.7378 32.533Z" fill="#263680"/>
</g>
<mask id="mask21_1320_1264" style="mask-type:luminance" maskUnits="userSpaceOnUse" x="28" y="29" width="9" height="5">
<path d="M36.034 29.0034H28.9829V33.6834H36.034V29.0034Z" fill="white"/>
</mask>
<g mask="url(#mask21_1320_1264)">
<path d="M32.0564 32.8952C32.034 32.8952 32.0115 32.8928 31.9891 32.8854C31.8571 32.8484 31.7799 32.713 31.8173 32.5824C31.8297 32.5381 32.1386 31.4888 33.2444 31.2351C33.3789 31.2055 33.5109 31.2868 33.5433 31.4198C33.5732 31.5528 33.491 31.6834 33.3565 31.7154C32.5421 31.9001 32.3054 32.6809 32.2955 32.7154C32.2631 32.8238 32.1635 32.8928 32.0564 32.8928V32.8952Z" fill="#263680"/>
</g>
<mask id="mask22_1320_1264" style="mask-type:luminance" maskUnits="userSpaceOnUse" x="17" y="50" width="18" height="5">
<path d="M34.734 50.5293H17.1499V54.7881H34.734V50.5293Z" fill="white"/>
</mask>
<g mask="url(#mask22_1320_1264)">
<path d="M26.1536 54.4554C22.323 54.4554 19.5658 52.7534 19.526 52.7287C19.4089 52.6548 19.3765 52.5021 19.4512 52.3888C19.526 52.2755 19.6804 52.241 19.7949 52.3149C19.8522 52.3519 25.6854 55.9407 32.1063 52.4159C32.2258 52.3494 32.3778 52.3937 32.445 52.512C32.5123 52.6302 32.4674 52.7805 32.3479 52.847C30.1536 54.0515 28.0266 54.4579 26.1536 54.4579V54.4554Z" fill="#263680"/>
</g>
</g>
</g>
<defs>
<clipPath id="clip0_1320_1264">
<rect width="52" height="56" fill="white" transform="translate(0.288086)"/>
</clipPath>
</defs>
</svg>
